<svg width="18" height="18" viewBox="0 0 18 18" fill="none" xmlns="http://www.w3.org/2000/svg">
<path fill-rule="evenodd" clip-rule="evenodd" d="M1.3176 16.6824C2.637 18 4.7574 18 9 18C13.2426 18 15.3639 18 16.6815 16.6815C18 15.3648 18 13.2426 18 9C18 4.7574 18 2.6361 16.6815 1.3176C15.3648 0 13.2426 0 9 0C4.7574 0 2.6361 0 1.3176 1.3176C0 2.637 0 4.7574 0 9C0 13.2426 0 15.3648 1.3176 16.6824ZM6.75 6.075C6.17149 6.075 5.60597 6.24655 5.12496 6.56795C4.64394 6.88935 4.26904 7.34618 4.04765 7.88065C3.82627 8.41512 3.76834 9.00324 3.8812 9.57064C3.99407 10.138 4.27264 10.6592 4.68171 11.0683C5.09078 11.4774 5.61197 11.7559 6.17936 11.8688C6.74675 11.9817 7.33487 11.9237 7.86935 11.7023C8.40382 11.481 8.86065 11.1061 9.18205 10.625C9.50345 10.144 9.675 9.57851 9.675 9C9.675 8.82098 9.74612 8.64929 9.8727 8.5227C9.99929 8.39612 10.171 8.325 10.35 8.325C10.529 8.325 10.7007 8.39612 10.8273 8.5227C10.9539 8.64929 11.025 8.82098 11.025 9C11.025 9.84552 10.7743 10.672 10.3045 11.3751C9.83479 12.0781 9.16712 12.626 8.38597 12.9496C7.60482 13.2731 6.74526 13.3578 5.91599 13.1929C5.08672 13.0279 4.32499 12.6208 3.72712 12.0229C3.12925 11.425 2.72209 10.6633 2.55714 9.83401C2.39219 9.00474 2.47685 8.14518 2.80042 7.36403C3.12398 6.58287 3.67192 5.91521 4.37494 5.44547C5.07796 4.97572 5.90448 4.725 6.75 4.725C6.92902 4.725 7.10071 4.79612 7.2273 4.9227C7.35388 5.04929 7.425 5.22098 7.425 5.4C7.425 5.57902 7.35388 5.75071 7.2273 5.8773C7.10071 6.00388 6.92902 6.075 6.75 6.075ZM14.175 9C14.175 9.77576 13.8668 10.5197 13.3183 11.0683C12.7697 11.6168 12.0258 11.925 11.25 11.925C11.071 11.925 10.8993 11.9961 10.7727 12.1227C10.6461 12.2493 10.575 12.421 10.575 12.6C10.575 12.779 10.6461 12.9507 10.7727 13.0773C10.8993 13.2039 11.071 13.275 11.25 13.275C12.0955 13.275 12.922 13.0243 13.6251 12.5545C14.3281 12.0848 14.876 11.4171 15.1996 10.636C15.5231 9.85482 15.6078 8.99526 15.4429 8.16599C15.2779 7.33672 14.8708 6.57499 14.2729 5.97712C13.675 5.37925 12.9133 4.97209 12.084 4.80714C11.2547 4.64219 10.3952 4.72685 9.61403 5.05042C8.83287 5.37398 8.16521 5.92192 7.69547 6.62494C7.22572 7.32796 6.975 8.15448 6.975 9C6.975 9.17902 7.04612 9.35071 7.1727 9.4773C7.29929 9.60388 7.47098 9.675 7.65 9.675C7.82902 9.675 8.00071 9.60388 8.1273 9.4773C8.25388 9.35071 8.325 9.17902 8.325 9C8.325 8.22424 8.63317 7.48026 9.18171 6.93171C9.73026 6.38317 10.4742 6.075 11.25 6.075C12.0258 6.075 12.7697 6.38317 13.3183 6.93171C13.8668 7.48026 14.175 8.22424 14.175 9Z" fill="#0073FF"/>
</svg>
