<svg width="22" height="24" viewBox="0 0 22 24" fill="none" xmlns="http://www.w3.org/2000/svg">
<path d="M22 8.328C21.9874 8.21775 21.9628 8.10913 21.9267 8.004V7.896C21.8693 7.77186 21.7907 7.65824 21.6944 7.56L14.3611 0.36C14.2611 0.265465 14.1453 0.188361 14.0189 0.132C13.9824 0.126569 13.9453 0.126569 13.9089 0.132C13.7845 0.0626668 13.6475 0.0178296 13.5056 0H8.55556C7.5831 0 6.65046 0.379285 5.96283 1.05442C5.2752 1.72955 4.88889 2.64522 4.88889 3.6V4.8H3.66667C2.69421 4.8 1.76158 5.17929 1.07394 5.85442C0.386309 6.52955 0 7.44522 0 8.4V20.4C0 21.3548 0.386309 22.2705 1.07394 22.9456C1.76158 23.6207 2.69421 24 3.66667 24H13.4444C14.4169 24 15.3495 23.6207 16.0372 22.9456C16.7248 22.2705 17.1111 21.3548 17.1111 20.4V19.2H18.3333C19.3058 19.2 20.2384 18.8207 20.9261 18.1456C21.6137 17.4705 22 16.5548 22 15.6V8.328ZM14.6667 4.092L17.8322 7.2H15.8889C15.5647 7.2 15.2539 7.07357 15.0246 6.84853C14.7954 6.62348 14.6667 6.31826 14.6667 6V4.092ZM14.6667 20.4C14.6667 20.7183 14.5379 21.0235 14.3087 21.2485C14.0795 21.4736 13.7686 21.6 13.4444 21.6H3.66667C3.34251 21.6 3.03164 21.4736 2.80243 21.2485C2.57321 21.0235 2.44444 20.7183 2.44444 20.4V8.4C2.44444 8.08174 2.57321 7.77652 2.80243 7.55147C3.03164 7.32643 3.34251 7.2 3.66667 7.2H4.88889V15.6C4.88889 16.5548 5.2752 17.4705 5.96283 18.1456C6.65046 18.8207 7.5831 19.2 8.55556 19.2H14.6667V20.4ZM19.5556 15.6C19.5556 15.9183 19.4268 16.2235 19.1976 16.4485C18.9684 16.6736 18.6575 16.8 18.3333 16.8H8.55556C8.2314 16.8 7.92053 16.6736 7.69131 16.4485C7.4621 16.2235 7.33333 15.9183 7.33333 15.6V3.6C7.33333 3.28174 7.4621 2.97652 7.69131 2.75147C7.92053 2.52643 8.2314 2.4 8.55556 2.4H12.2222V6C12.2222 6.95478 12.6085 7.87045 13.2962 8.54559C13.9838 9.22072 14.9164 9.6 15.8889 9.6H19.5556V15.6Z" fill="white"/>
</svg>
